<svg xmlns="http://www.w3.org/2000/svg" viewBox="0 0 338.64 79.74"><defs><style>.cls-1{fill:#222221;}</style></defs><g id="Capa_2" data-name="Capa 2"><g id="Capa_1-2" data-name="Capa 1"><path class="cls-1" d="M273.4,28.31v-11H256.86a9.17,9.17,0,0,0-7.43,3.22A12.53,12.53,0,0,0,247,29c.11,3.88,1.33,6.77,3.66,8.43,2.55,1.78,7,2.67,13.32,2.55a1.9,1.9,0,0,1,1.22.78,1.52,1.52,0,0,1,.44,1.22,3.7,3.7,0,0,1-.44,1.33,1.59,1.59,0,0,1-1.22.56H247.88V54.94h15.64a13.34,13.34,0,0,0,8.66-2.88A10.74,10.74,0,0,0,275.5,47v-6.1a10.91,10.91,0,0,0-4.1-6,13.84,13.84,0,0,0-6.55-2.33l-6-.44c-1-.11-1.55-.78-1.55-2a2.25,2.25,0,0,1,.33-1.22,1.61,1.61,0,0,1,1.22-.56Z"/><path class="cls-1" d="M238,20.33a7.57,7.57,0,0,0-6.32-3H221.36c-4.33,0-8,1.89-11,5.77a19.66,19.66,0,0,0-4.32,13.09,20.35,20.35,0,0,0,4.32,13c3,3.89,6.66,5.77,11,5.77h19.2V43.85h-19.2a4.72,4.72,0,0,1-4-2.44,9.79,9.79,0,0,1-1.77-5.22,8.77,8.77,0,0,1,1.77-5.32c1.11-1.67,2.44-2.56,4-2.56h6.44c.44-.1.77.23,1.11.78a1.92,1.92,0,0,1,0,1.56c-1.23,2.33-2.89,5.21-5.22,8.76h10.54c5-7.77,6.21-14.09,3.77-19.08Z"/><path class="cls-1" d="M195.51,21.88a14.37,14.37,0,0,0-5-3.55,11.46,11.46,0,0,0-5.32-1.11h-5.66V28.31h5.66a5.34,5.34,0,0,1,4.1,2.22A8.45,8.45,0,0,1,191.07,36a9,9,0,0,1-1.78,5.55,5.17,5.17,0,0,1-4.1,2.33h-9V5.35h-9.65V54.94h18.64a14.13,14.13,0,0,0,5.43-1.22A15.66,15.66,0,0,0,195.51,50a19.68,19.68,0,0,0,5.21-14c-.11-5.88-1.78-10.54-5.21-14.09Z"/><path class="cls-1" d="M142.36,17.33c-4.44,0-8.1,1.89-11.1,5.66A20.08,20.08,0,0,0,127,36.19a19.81,19.81,0,0,0,4.22,13.1c3,3.77,6.66,5.65,11.1,5.65h5.44V43.85h-5.44a4.84,4.84,0,0,1-4-2.33,7.68,7.68,0,0,1-1.66-5.33,8.21,8.21,0,0,1,1.66-5.54,5.14,5.14,0,0,1,4-2.34h9V54.94h9.54V17.33Z"/><path class="cls-1" d="M98.86,17.33h-5A14,14,0,0,0,83,22.1,17,17,0,0,0,78.67,34v21H89.43V34a6.43,6.43,0,0,1,1.22-3.77,4,4,0,0,1,3.22-1.89h5v-11Z"/><path class="cls-1" d="M124.05,17.33h-5a14.1,14.1,0,0,0-10.88,4.88A17,17,0,0,0,103.86,34v21h10.76V34a6.36,6.36,0,0,1,1.22-3.77,4,4,0,0,1,3.22-1.89h5v-11Z"/><path class="cls-1" d="M50.82,41.52A8.36,8.36,0,0,1,49,36.19a8.93,8.93,0,0,1,1.78-5.54,4.82,4.82,0,0,1,4-2.34h8.88V54.94h9.65V17.33H54.81A13.82,13.82,0,0,0,43.61,23a21.3,21.3,0,0,0-4.22,13.2,21,21,0,0,0,4.22,13.1,13.81,13.81,0,0,0,11.2,5.65h5.55V43.85H54.81a4.84,4.84,0,0,1-4-2.33Z"/><path class="cls-1" d="M34.18,36.08C34.06,30.2,32.4,25.54,29,22a13.29,13.29,0,0,0-5-3.66,11.43,11.43,0,0,0-5.32-1.11H13V28.43h5.66c1.44-.12,2.77.66,4,2.1a8.92,8.92,0,0,1,1.78,5.55,8.81,8.81,0,0,1-1.78,5.44,5.14,5.14,0,0,1-4,2.33H9.54V5.46L0,5.35V54.94H18.64A11.31,11.31,0,0,0,24,53.83,16.73,16.73,0,0,0,29,50a19.55,19.55,0,0,0,5.21-13.87Z"/><path class="cls-1" d="M330.87,6.68a6.05,6.05,0,0,0-1.22-1.89,6.7,6.7,0,0,0-3.77-1.55l-2.44-.56A9.74,9.74,0,0,1,321,1.57,27.52,27.52,0,0,0,316.23,0a1.83,1.83,0,0,0-1.78.78l-1.22,1.66A5.08,5.08,0,0,0,312.9,6a25.16,25.16,0,0,1,.67,5.77,23.86,23.86,0,0,1-.56,4,1.2,1.2,0,0,0,.11.89l.77.44L315.56,19a.63.63,0,0,0,.56.23h.33l3.22-.45A6.41,6.41,0,0,0,322,18a18.69,18.69,0,0,0,5.67-3.78,21.6,21.6,0,0,0,2.1-3.77L331,7.57a2.17,2.17,0,0,0-.11-.89Z"/><path class="cls-1" d="M334.42,14.89a2.28,2.28,0,0,0-2.77-.78,16.44,16.44,0,0,0-4.55,3.33,19.57,19.57,0,0,1-6.66,3,14.68,14.68,0,0,1-4.21.33,2.78,2.78,0,0,0-.89,1.44c-.56.78-.66,1.33-.44,1.78l3.55,5.1,1,1.22a8.1,8.1,0,0,0,1.34,1.11c1.55,1.67,4.1,2.44,7.54,2.55a4.34,4.34,0,0,0,3.55-3.55,25,25,0,0,0,.33-4.77l.23-2.22a7.91,7.91,0,0,1,1.11-2.66,11.64,11.64,0,0,0,1-2.55,14.07,14.07,0,0,0,.45-1.78,15,15,0,0,0-.56-1.55Z"/><path class="cls-1" d="M321.77,41c.56-.44,1-.77,1.23-1a2.45,2.45,0,0,0,.55-1.44,4.21,4.21,0,0,0-.67-2.66A13,13,0,0,0,320,32.64a28.89,28.89,0,0,1-3.88-3.88c-1.44-2.11-2.33-3.33-2.55-3.66a.7.7,0,0,0-.45-.11l-2.33.11c-.11,0-.33.22-.67.55-1.66,2.56-2.66,3.89-2.77,4l-2.55,2.66a29.9,29.9,0,0,0-3.11,2.77,6.85,6.85,0,0,0-.78,1.56,3.31,3.31,0,0,0-.22,1.89,3.08,3.08,0,0,0,3.22,2.88c.11,0,1.78-.22,4.77-.56a19.73,19.73,0,0,1,7-.33l2.22.55c1.89.23,3.22.23,3.88-.11Z"/><path class="cls-1" d="M326.1,42.41a11.19,11.19,0,0,0-3.77.88,2.31,2.31,0,0,0-1,.56,3.71,3.71,0,0,1-.89.67,8.45,8.45,0,0,0-1.77,1,5.93,5.93,0,0,0-1.11,1.89,6.78,6.78,0,0,0,0,2.11l.44,1.11a2.44,2.44,0,0,1-.11,1,3.3,3.3,0,0,1-.66.78,5.26,5.26,0,0,1-2,.89,3.88,3.88,0,0,1-1.56-.11,1,1,0,0,1-.44-.89V50.5l.44-1.44a4.89,4.89,0,0,0,.34-2.77,8.82,8.82,0,0,0-.56-1.55,1.62,1.62,0,0,0-1.44-.67,2.09,2.09,0,0,0-1.55.78,2.63,2.63,0,0,0-.67,2.1,5.62,5.62,0,0,0,.33,2.11,7.5,7.5,0,0,1,.56,2.33c.11.78.11,1.23,0,1.33a.89.89,0,0,1-.56.56,7.46,7.46,0,0,1-2-.33c-1-.56-1.56-.78-1.56-.89a2.53,2.53,0,0,1-.33-1.11V50l.56-1.55a3.17,3.17,0,0,0,.22-2,6.29,6.29,0,0,0-2.22-3,26.38,26.38,0,0,0-3.11-1,25.33,25.33,0,0,0-5.21.11,17.56,17.56,0,0,1-3.55.11,5.24,5.24,0,0,1-2.67-.67,2.33,2.33,0,0,1-1-.55l-1-1c-.67-.33-1.12-.22-1.34.22a4.84,4.84,0,0,0-.89,2.22l-.32,1.89a21.89,21.89,0,0,0-.23,4.43,11.22,11.22,0,0,0,1.66,5,26.41,26.41,0,0,0,3.67,3.88,14.5,14.5,0,0,0,3.44,1.56c1.88.44,3.33.66,4.1.77a8.49,8.49,0,0,0,4-1.33,4.87,4.87,0,0,0,1.44-1.78c.56-1,.89-1.66,1-1.88a1.9,1.9,0,0,1,1.55,0,9.69,9.69,0,0,1,2.11,1.11l1.66,1.66a3.67,3.67,0,0,1,.78.67,2,2,0,0,0,1.11.55,6,6,0,0,1,1.22-.11l.66-.22a5.75,5.75,0,0,0,.89-.89,3.36,3.36,0,0,1,1.11-1A4.77,4.77,0,0,0,317,56.05a2.58,2.58,0,0,1,.89-1,8.12,8.12,0,0,1,1.11-.44,2.91,2.91,0,0,1,1.22.33c.11.11.44.56,1,1.34a10,10,0,0,0,2.11,2.22,4.35,4.35,0,0,0,3,.66,26,26,0,0,0,3.66-.78,22.94,22.94,0,0,0,3.56-2.1l1-1.23a12.34,12.34,0,0,0,2.11-2.1L338,49.51a18.74,18.74,0,0,0,.67-4.77l-.11-2.56A8,8,0,0,0,338,40l-.77-1.88a4.46,4.46,0,0,0-1.33-1.22,1,1,0,0,0-1.34.11,13.05,13.05,0,0,1-2.1,3L331,41a9.28,9.28,0,0,1-2.22,1,15.4,15.4,0,0,1-2.66.45Z"/><path class="cls-1" d="M303.47.8a38.75,38.75,0,0,0-3.78,1.88,5.55,5.55,0,0,1-1.88.89,13.43,13.43,0,0,1-1.89.34,10.89,10.89,0,0,0-4.44,1,3.28,3.28,0,0,0-1.33,3,7.66,7.66,0,0,0,.22,1.44,7.82,7.82,0,0,0,3.22,3.55l2.11,1.44c.88.56,1.55,1,2.11,1.33,1.22.56,2.88,1.23,5.1,2,1.45.56,2.66.89,3.66,1.22a4.51,4.51,0,0,0,1.67.11,4.85,4.85,0,0,0,1.88-1.66l.89-1.11a1.74,1.74,0,0,0,.44-1c.34-.66.23-2.66-.33-5.88l-.33-2.55a8.56,8.56,0,0,0-1-2.22c-.22-.11-.44-.56-.78-1.22A7,7,0,0,0,308,2a5.54,5.54,0,0,0-1.45-.89,9.35,9.35,0,0,0-2-.55,1.26,1.26,0,0,0-1.11.22Z"/><path class="cls-1" d="M289.93,16.78a6,6,0,0,0-.22,3.1c.11.33.55,1.22,1.22,2.89a34.4,34.4,0,0,1,.66,3.77,3.72,3.72,0,0,1-.33,2.11,3.72,3.72,0,0,0-.33,1.66A4,4,0,0,0,291,32c.33.88.44,1.44.55,1.66a3.56,3.56,0,0,0,2.23,1.55,8,8,0,0,0,4.21-.44,57.23,57.23,0,0,0,4.66-3.66c2.33-2.22,4-3.89,5-5L309,24.21v-.33l-.88-2a1.94,1.94,0,0,0-.67-1.44,4.23,4.23,0,0,0-1.44-.11,6.76,6.76,0,0,1-1.88-.34,43.5,43.5,0,0,1-11.21-4.33c-1-.33-2,.12-3,1.12Z"/><path class="cls-1" d="M312,18a1.8,1.8,0,0,0-1.22.78l-1.12,1.34a3.32,3.32,0,0,0-.11,1.44,2.43,2.43,0,0,0,.89,1.12,2.31,2.31,0,0,0,1,.55,5.08,5.08,0,0,0,1.44-.33,3.33,3.33,0,0,0,1.45-1.56,2.36,2.36,0,0,0,.22-1.45,3.89,3.89,0,0,0-1.11-1.44A2.22,2.22,0,0,0,312,18Z"/><path class="cls-1" d="M81.79,78.48V65H89.3v1.86H84v3.37H89.3v1.92H84v4.35H89.3v2Z"/><path class="cls-1" d="M91,75.79,92.78,75a2.41,2.41,0,0,0,.91,1.37,2.85,2.85,0,0,0,1.7.48,2.16,2.16,0,0,0,1.54-.55,1.87,1.87,0,0,0,.58-1.45c0-.79-.66-1.49-2-2.11l-.42-.21a9.53,9.53,0,0,1-3-2,3.22,3.22,0,0,1-.74-2.14,3.46,3.46,0,0,1,1.12-2.67,4.18,4.18,0,0,1,2.93-1,5,5,0,0,1,2.49.57,3.08,3.08,0,0,1,1.39,1.65l-1.71.89a2.75,2.75,0,0,0-.89-.93,2.05,2.05,0,0,0-1.11-.3,2.09,2.09,0,0,0-1.4.46,1.59,1.59,0,0,0-.52,1.23c0,.81.76,1.57,2.28,2.27l.28.12A8.34,8.34,0,0,1,99,72.48a3.32,3.32,0,0,1,.74,2.19,4,4,0,0,1-1.2,3,4.6,4.6,0,0,1-3.26,1.13,4.67,4.67,0,0,1-2.81-.79A3.64,3.64,0,0,1,91,75.79Z"/><path class="cls-1" d="M113.91,76.65l2.86,3.09h-2.61l-1.76-1.9a8.28,8.28,0,0,1-1.83.72,7.7,7.7,0,0,1-1.94.24,7.22,7.22,0,0,1-5-2,6.94,6.94,0,0,1,0-10A7,7,0,0,1,106,65.25a7.53,7.53,0,0,1,5.55,0,7.12,7.12,0,0,1,2.32,1.52,7,7,0,0,1,1.56,2.28,6.86,6.86,0,0,1,.54,2.71,6.81,6.81,0,0,1-2,4.89Zm-2.73-3,1.29,1.39a4.74,4.74,0,0,0,.9-1.55,5.12,5.12,0,0,0,.29-1.74,5.23,5.23,0,0,0-.36-1.94,4.84,4.84,0,0,0-1.06-1.62,5.3,5.3,0,0,0-1.61-1.1,4.73,4.73,0,0,0-3.76,0,5,5,0,0,0-1.6,1.1,4.87,4.87,0,0,0-1.07,1.62,5.23,5.23,0,0,0-.37,1.94,4.87,4.87,0,0,0,1.43,3.56,4.79,4.79,0,0,0,3.55,1.45,4.86,4.86,0,0,0,1.09-.12,5.42,5.42,0,0,0,1-.39l-2.41-2.6Z"/><path class="cls-1" d="M118.39,65h2.16v8.17a3.93,3.93,0,0,0,.85,2.74,3.92,3.92,0,0,0,5,0,3.92,3.92,0,0,0,.84-2.74V65h2.18V73.4a5.47,5.47,0,0,1-1.38,4.08,7,7,0,0,1-8.3,0,5.53,5.53,0,0,1-1.37-4.09Z"/><path class="cls-1" d="M132.31,63.7l1.75-2.5h2.07l-2.69,2.5Zm.19,14.78V65h2.18V78.48Z"/><path class="cls-1" d="M146.4,78.48V72.32L141.87,65h2.3L147,69.59l.25.46c.11.19.21.4.31.62.09-.22.18-.42.27-.61s.2-.36.3-.52L151,65h2.19l-4.64,7.3v6.16Z"/><path class="cls-1" d="M171.32,71.83c0-.1-.06-.39-.12-.86s-.09-.72-.12-1a7.64,7.64,0,0,1-.24.91,8,8,0,0,1-.38.94L166.94,79l-3.52-7.31a9,9,0,0,1-.38-.88c-.11-.28-.2-.56-.28-.83,0,.28,0,.57-.07.88a9.1,9.1,0,0,1-.18,1l-1.45,6.63h-2l3.18-14,4,8.5a6.22,6.22,0,0,1,.28.67c.13.31.28.7.46,1.16a14.37,14.37,0,0,1,.61-1.48c.07-.15.12-.28.16-.36l3.88-8.49,3.26,14h-2Z"/><path class="cls-1" d="M190.39,71.78a6.85,6.85,0,0,1-2.11,5,7.38,7.38,0,0,1-2.34,1.54,7.36,7.36,0,0,1-5.51,0,7.14,7.14,0,0,1-2.33-1.53,6.69,6.69,0,0,1-1.56-2.27,7.12,7.12,0,0,1,0-5.44,6.76,6.76,0,0,1,1.56-2.29,7,7,0,0,1,2.33-1.53,7.37,7.37,0,0,1,2.77-.52,7.23,7.23,0,0,1,2.75.52,7.17,7.17,0,0,1,3.9,3.83A6.94,6.94,0,0,1,190.39,71.78Zm-2.28,0a5.07,5.07,0,0,0-.37-1.94,5.22,5.22,0,0,0-1.07-1.64,4.85,4.85,0,0,0-5.36-1.09,4.8,4.8,0,0,0-1.59,1.09,4.91,4.91,0,0,0-1.07,1.63,5.28,5.28,0,0,0-.37,2,5.22,5.22,0,0,0,.37,1.93,5,5,0,0,0,1.07,1.63,4.82,4.82,0,0,0,3.48,1.47,4.74,4.74,0,0,0,1.87-.38,5.17,5.17,0,0,0,1.6-1.09,5.22,5.22,0,0,0,1.07-1.64A5,5,0,0,0,188.11,71.78Z"/><path class="cls-1" d="M192.9,78.48v-14l8.55,8.23.71.74c.23.26.49.56.75.89V65h2V79l-8.72-8.37c-.24-.23-.46-.47-.68-.72a9.82,9.82,0,0,1-.62-.79v9.36Z"/><path class="cls-1" d="M212.37,66.88v11.6h-2.19V66.88H206.6V65h9.33v1.86Z"/><path class="cls-1" d="M226.49,78.48,225,75h-5.33l-1.56,3.47h-2.3l6.52-14,6.5,14Zm-6.05-5.29h3.75l-1.38-3.07c-.08-.19-.16-.42-.25-.67s-.17-.54-.26-.85c-.07.29-.15.57-.23.82s-.17.49-.25.7Z"/><path class="cls-1" d="M230.06,78.48v-14l8.55,8.23c.24.23.47.48.71.74s.49.56.75.89V65h2V79l-8.73-8.37c-.23-.23-.46-.47-.67-.72a8,8,0,0,1-.62-.79v9.36Zm8.72-17.07a2.72,2.72,0,0,1-.64,1.41,1.55,1.55,0,0,1-1.15.5h-.24l-.25,0-1.14-.3-.22,0H235a.86.86,0,0,0-.51.14,1,1,0,0,0-.28.48h-.83A3.11,3.11,0,0,1,234,62.1a1.44,1.44,0,0,1,1.1-.47l.28,0,.28.05,1.08.29.16,0h.27a.72.72,0,0,0,.48-.17.84.84,0,0,0,.27-.45Z"/><path class="cls-1" d="M254.07,78.48,252.55,75h-5.33l-1.57,3.47h-2.29l6.51-14,6.51,14Zm-6-5.29h3.75l-1.38-3.07c-.08-.19-.17-.42-.25-.67s-.17-.54-.26-.85c-.07.29-.15.57-.23.82s-.17.49-.26.7Z"/></g></g></svg>